<svg xmlns="http://www.w3.org/2000/svg" xmlns:xlink="http://www.w3.org/1999/xlink" contentStyleType="text/css" data-diagram-type="SEQUENCE" height="311px" preserveAspectRatio="none" style="width:228px;height:311px;background:#FFFFFF;" version="1.1" viewBox="0 0 228 311" width="228px" zoomAndPan="magnify"><defs/><g><g><title>User</title><rect fill="#000000" fill-opacity="0.00000" height="145.1641" width="8" x="18.7793" y="83.6211"/><line style="stroke:#181818;stroke-width:0.5;stroke-dasharray:5,5;" x1="22" x2="22" y1="83.6211" y2="228.7852"/></g><g><title>System</title><rect fill="#000000" fill-opacity="0.00000" height="145.1641" width="8" x="187.6973" y="83.6211"/><line style="stroke:#181818;stroke-width:0.5;stroke-dasharray:5,5;" x1="191.3594" x2="191.3594" y1="83.6211" y2="228.7852"/></g><g class="participant participant-head" data-participant="User"><text fill="#000000" font-family="sans-serif" font-size="14" lengthAdjust="spacing" textLength="29.5586" x="5" y="80.1074">User</text><ellipse cx="22.7793" cy="13.5" fill="#E2E2F0" rx="8" ry="8" style="stroke:#181818;stroke-width:0.5;"/><path d="M22.7793,21.5 L22.7793,48.5 M9.7793,29.5 L35.7793,29.5 M22.7793,48.5 L9.7793,63.5 M22.7793,48.5 L35.7793,63.5" fill="none" style="stroke:#181818;stroke-width:0.5;"/></g><g class="participant participant-tail" data-participant="User"><text fill="#000000" font-family="sans-serif" font-size="14" lengthAdjust="spacing" textLength="29.5586" x="5" y="242.8926">User</text><ellipse cx="22.7793" cy="254.9063" fill="#E2E2F0" rx="8" ry="8" style="stroke:#181818;stroke-width:0.5;"/><path d="M22.7793,262.9063 L22.7793,289.9063 M9.7793,270.9063 L35.7793,270.9063 M22.7793,289.9063 L9.7793,304.9063 M22.7793,289.9063 L35.7793,304.9063" fill="none" style="stroke:#181818;stroke-width:0.5;"/></g><g class="participant participant-head" data-participant="System"><rect fill="#E2E2F0" height="32.6211" rx="2.5" ry="2.5" style="stroke:#181818;stroke-width:0.5;" width="60.6758" x="161.3594" y="50"/><text fill="#000000" font-family="sans-serif" font-size="14" lengthAdjust="spacing" textLength="46.6758" x="168.3594" y="72.1074">System</text></g><g class="participant participant-tail" data-participant="System"><rect fill="#E2E2F0" height="32.6211" rx="2.5" ry="2.5" style="stroke:#181818;stroke-width:0.5;" width="60.6758" x="161.3594" y="227.7852"/><text fill="#000000" font-family="sans-serif" font-size="14" lengthAdjust="spacing" textLength="46.6758" x="168.3594" y="249.8926">System</text></g><g class="message" data-participant-1="User" data-participant-2="System"><polygon fill="#181818" points="179.6973,112.9121,189.6973,116.9121,179.6973,120.9121,183.6973,116.9121" style="stroke:#181818;stroke-width:1;"/><line style="stroke:#181818;stroke-width:1;" x1="22.7793" x2="185.6973" y1="116.9121" y2="116.9121"/><text fill="#000000" font-family="sans-serif" font-size="13" font-weight="bold" lengthAdjust="spacing" textLength="7.23" x="29.7793" y="111.6494">1</text><text fill="#000000" font-family="sans-serif" font-size="13" lengthAdjust="spacing" textLength="119.2153" x="41.0093" y="111.6494">Search for the music</text></g><g class="message" data-participant-1="System" data-participant-2="User"><polygon fill="#181818" points="33.7793,144.2031,23.7793,148.2031,33.7793,152.2031,29.7793,148.2031" style="stroke:#181818;stroke-width:1;"/><line style="stroke:#181818;stroke-width:1;stroke-dasharray:2,2;" x1="27.7793" x2="190.6973" y1="148.2031" y2="148.2031"/><text fill="#000000" font-family="sans-serif" font-size="13" font-weight="bold" lengthAdjust="spacing" textLength="7.23" x="39.7793" y="142.9404">2</text><text fill="#000000" font-family="sans-serif" font-size="13" lengthAdjust="spacing" textLength="115.6099" x="51.0093" y="142.9404">Show music options</text></g><g class="message" data-participant-1="User" data-participant-2="System"><polygon fill="#181818" points="179.6973,175.4941,189.6973,179.4941,179.6973,183.4941,183.6973,179.4941" style="stroke:#181818;stroke-width:1;"/><line style="stroke:#181818;stroke-width:1;" x1="22.7793" x2="185.6973" y1="179.4941" y2="179.4941"/><text fill="#000000" font-family="sans-serif" font-size="13" font-weight="bold" lengthAdjust="spacing" textLength="7.23" x="29.7793" y="174.2314">3</text><text fill="#000000" font-family="sans-serif" font-size="13" lengthAdjust="spacing" textLength="133.688" x="41.0093" y="174.2314">Select to add to playlist</text></g><g class="message" data-participant-1="System" data-participant-2="User"><polygon fill="#181818" points="33.7793,206.7852,23.7793,210.7852,33.7793,214.7852,29.7793,210.7852" style="stroke:#181818;stroke-width:1;"/><line style="stroke:#181818;stroke-width:1;stroke-dasharray:2,2;" x1="27.7793" x2="190.6973" y1="210.7852" y2="210.7852"/><text fill="#000000" font-family="sans-serif" font-size="13" font-weight="bold" lengthAdjust="spacing" textLength="7.23" x="39.7793" y="205.5225">4</text><text fill="#000000" font-family="sans-serif" font-size="13" lengthAdjust="spacing" textLength="80.9326" x="51.0093" y="205.5225">Add to playlist</text></g><!--SRC=[ROyn3i8m34NtdCBgmbIwTq3Y31K7CAaXaP8un8wgtfv4PG8cV-i_FyadfvfbdgOSC6cDuMmvJaAlIidIk7fy5ep6O5LEDTwfj6oL2zoavun5lVMv7SEmxA8K1q218nhJAHWldts6XR1O1uycK4SGgtXhZXB6ndM-KOwtemFEwZd97r4Wgw0CkAvzj0Vsu4L_RTSlu0q0]--></g></svg>