<svg xmlns="http://www.w3.org/2000/svg" xmlns:xlink="http://www.w3.org/1999/xlink" contentStyleType="text/css" data-diagram-type="SEQUENCE" height="293px" preserveAspectRatio="none" style="width:317px;height:293px;background:#FFFFFF;" version="1.1" viewBox="0 0 317 293" width="317px" zoomAndPan="magnify"><defs/><g><g><title>User</title><rect fill="#000000" fill-opacity="0.00000" height="126.873" width="8" x="18.7793" y="83.6211"/><line style="stroke:#181818;stroke-width:0.5;stroke-dasharray:5,5;" x1="22" x2="22" y1="83.6211" y2="210.4941"/></g><g><title>System</title><rect fill="#000000" fill-opacity="0.00000" height="126.873" width="8" x="217.6382" y="83.6211"/><line style="stroke:#181818;stroke-width:0.5;stroke-dasharray:5,5;" x1="221.3003" x2="221.3003" y1="83.6211" y2="210.4941"/></g><g class="participant participant-head" data-participant="User"><text fill="#000000" font-family="sans-serif" font-size="14" lengthAdjust="spacing" textLength="29.5586" x="5" y="80.1074">User</text><ellipse cx="22.7793" cy="13.5" fill="#E2E2F0" rx="8" ry="8" style="stroke:#181818;stroke-width:0.5;"/><path d="M22.7793,21.5 L22.7793,48.5 M9.7793,29.5 L35.7793,29.5 M22.7793,48.5 L9.7793,63.5 M22.7793,48.5 L35.7793,63.5" fill="none" style="stroke:#181818;stroke-width:0.5;"/></g><g class="participant participant-tail" data-participant="User"><text fill="#000000" font-family="sans-serif" font-size="14" lengthAdjust="spacing" textLength="29.5586" x="5" y="224.6016">User</text><ellipse cx="22.7793" cy="236.6152" fill="#E2E2F0" rx="8" ry="8" style="stroke:#181818;stroke-width:0.5;"/><path d="M22.7793,244.6152 L22.7793,271.6152 M9.7793,252.6152 L35.7793,252.6152 M22.7793,271.6152 L9.7793,286.6152 M22.7793,271.6152 L35.7793,286.6152" fill="none" style="stroke:#181818;stroke-width:0.5;"/></g><g class="participant participant-head" data-participant="System"><rect fill="#E2E2F0" height="32.6211" rx="2.5" ry="2.5" style="stroke:#181818;stroke-width:0.5;" width="60.6758" x="191.3003" y="50"/><text fill="#000000" font-family="sans-serif" font-size="14" lengthAdjust="spacing" textLength="46.6758" x="198.3003" y="72.1074">System</text></g><g class="participant participant-tail" data-participant="System"><rect fill="#E2E2F0" height="32.6211" rx="2.5" ry="2.5" style="stroke:#181818;stroke-width:0.5;" width="60.6758" x="191.3003" y="209.4941"/><text fill="#000000" font-family="sans-serif" font-size="14" lengthAdjust="spacing" textLength="46.6758" x="198.3003" y="231.6016">System</text></g><g class="message" data-participant-1="User" data-participant-2="System"><polygon fill="#181818" points="209.6382,112.9121,219.6382,116.9121,209.6382,120.9121,213.6382,116.9121" style="stroke:#181818;stroke-width:1;"/><line style="stroke:#181818;stroke-width:1;" x1="22.7793" x2="215.6382" y1="116.9121" y2="116.9121"/><text fill="#000000" font-family="sans-serif" font-size="13" lengthAdjust="spacing" textLength="174.8589" x="29.7793" y="111.6494">Start recognition (microphone)</text></g><g class="message" data-participant-1="System" data-participant-2="System"><line style="stroke:#181818;stroke-width:1;stroke-dasharray:2,2;" x1="221.6382" x2="263.6382" y1="148.2031" y2="148.2031"/><line style="stroke:#181818;stroke-width:1;stroke-dasharray:2,2;" x1="263.6382" x2="263.6382" y1="148.2031" y2="161.2031"/><line style="stroke:#181818;stroke-width:1;stroke-dasharray:2,2;" x1="222.6382" x2="263.6382" y1="161.2031" y2="161.2031"/><polygon fill="#181818" points="232.6382,157.2031,222.6382,161.2031,232.6382,165.2031,228.6382,161.2031" style="stroke:#181818;stroke-width:1;"/><text fill="#000000" font-family="sans-serif" font-size="13" lengthAdjust="spacing" textLength="81.6689" x="228.6382" y="142.9404">Analyse audio</text></g><g class="message" data-participant-1="System" data-participant-2="User"><polygon fill="#181818" points="33.7793,188.4941,23.7793,192.4941,33.7793,196.4941,29.7793,192.4941" style="stroke:#181818;stroke-width:1;"/><line style="stroke:#181818;stroke-width:1;stroke-dasharray:2,2;" x1="27.7793" x2="220.6382" y1="192.4941" y2="192.4941"/><text fill="#000000" font-family="sans-serif" font-size="13" lengthAdjust="spacing" textLength="133.6943" x="39.7793" y="187.2314">Return the song details</text></g><!--SRC=[JOmn3eD030JxUyKgJPA23r14oXU2yW3diC0IsCJdA_XzGAHWgzLgPgzKmxJE7tOK_bRMpEY51gSv9SfXZdTXJsaX3ycoa0OktLg2vmkeuAXfoywXUVoN5bri2fop3IeXfhZDajsMqPJlwS3Gd8odqhGM1jLUx0pirorU7DKLCJAAwO2UWsGgwGS0]--></g></svg>